<?xml version="1.0" ?>
<svg width="118px" height="82px" viewBox="0 0 118 82" version="1.1" xmlns="http://www.w3.org/2000/svg" xmlns:xlink="http://www.w3.org/1999/xlink">
	<g id="Mockup" stroke="none" stroke-width="1" fill="none" fill-rule="evenodd">
		<g id="Desktop-//-Homepage-" transform="translate(-642.000000, -3465.000000)">
			<g id="Experience-with-Many-Caste-Types" transform="translate(227.000000, 3199.000000)">
				<g id="Worker's-Comp" transform="translate(393.000000, 266.000000)">
					<g id="noun_Hard-Hat_573718_000000" transform="translate(22.000000, 0.000000)">
						<path d="M62.0125123,0.000559841106 C63.3410952,0.00912217898 64.6682388,0.0519338684 65.9939429,0.14041136 C68.314285,0.294533441 70.6274299,0.577090591 72.9146654,0.992363978 C79.7000826,2.22676769 86.2882994,4.63563874 92.1769591,8.20898775 C94.3663141,9.53757718 96.4664252,11.0259969 98.3952455,12.7070692 C99.0343472,13.2636212 99.6547364,13.8430061 100.244898,14.4509321 C100.729982,14.9518288 101.199232,15.4727044 101.618103,16.0321105 C102.201067,16.8112832 102.644408,17.6903499 103.067597,18.5622813 C103.581469,19.6211571 104.053598,20.7000117 104.511333,21.7845745 C105.141798,23.2787024 105.739157,24.7856739 106.316364,26.2983536 C107.023118,28.1463915 107.699644,30.0058459 108.348822,31.8752896 C109.21967,34.3854817 110.047335,36.9127984 110.782878,39.4658022 C111.089474,40.5303862 111.381676,41.6006784 111.636453,42.679533 C111.849487,43.5842867 112.03949,44.4933216 112.154644,45.4151999 C112.217978,45.9803142 112.278434,46.5440015 112.344647,47.1076887 C112.648364,49.6449948 113.012537,52.1737386 113.455878,54.691066 L113.468832,54.7609917 C113.683306,54.8851456 113.89634,55.0135807 114.107934,55.1434428 C114.270588,55.2461909 114.433243,55.350366 114.594457,55.4559681 C115.295454,55.9226156 115.980617,56.4192312 116.586612,57.0043242 C116.979573,57.3824942 117.342307,57.8006217 117.60716,58.2772585 C117.77989,58.5869297 117.909437,58.923715 117.967014,59.2747708 C118.008757,59.5302139 118.011636,59.7913652 117.971332,60.0468083 C117.942544,60.2366068 117.887846,60.4235512 117.812996,60.6019332 C117.759738,60.7289412 117.693525,60.8530951 117.618675,60.9686867 C117.058741,61.839191 116.033876,62.2587456 115.060829,62.4956369 C114.882341,62.5384486 114.700974,62.5769791 114.521047,62.6098014 C114.256194,62.6597484 113.989902,62.699706 113.72217,62.7339553 C113.343603,62.7810482 112.963597,62.8167246 112.58359,62.8424116 C112.051006,62.878088 111.518421,62.8952127 110.985836,62.9052021 C108.854058,62.9308891 106.72228,62.9365973 104.590501,62.9508679 C100.904151,62.9765549 97.2178015,63.0022419 93.5314516,63.030783 C82.5314181,63.1235417 71.5313845,63.2348521 60.5327904,63.460327 C56.380069,63.5445233 52.2273477,63.6458443 48.0760657,63.7871229 C46.355961,63.8456322 44.6344169,63.9112768 42.9157516,63.992619 C41.1812528,64.0739612 39.4467539,64.169574 37.7151338,64.3051443 C34.7815996,64.5463169 31.8495049,64.8017599 28.9159707,65.0429325 C26.4128225,65.2470015 23.9082349,65.4453623 21.4022079,65.615182 C19.5799045,65.7393359 17.7561617,65.8492193 15.9309795,65.9219991 C14.6772463,65.9719461 13.4235131,66.0061955 12.1697799,65.9990602 C11.543633,65.994779 10.9174861,65.9819355 10.2913392,65.9491132 C9.67958646,65.917718 9.06783374,65.867771 8.46327812,65.7792935 C7.63849152,65.6565667 6.82378084,65.4596329 6.02922202,65.2127522 C5.52110741,65.0543489 5.0201899,64.8745398 4.53078772,64.6704708 C4.12055355,64.5006511 3.71751647,64.3151337 3.32455531,64.1082106 C3.07121772,63.9754943 2.82363779,63.8356428 2.58037613,63.6843748 C2.40332769,63.5744915 2.2291581,63.460327 2.05930675,63.3390272 C1.20717121,62.7311012 0.395339368,61.9305226 0.106016319,60.900188 C0.0657126106,60.7532012 0.0354848294,60.6033603 0.0182118115,60.4535193 C-0.00481887892,60.2565856 -0.00625829707,60.0582248 0.0153329752,59.861291 C0.0398030839,59.6201185 0.0988192282,59.3832271 0.186623736,59.1563252 C0.317610788,58.822394 0.513371656,58.5155769 0.750875652,58.2444362 C1.29929397,57.6179585 2.04347315,57.2240909 2.77757641,56.8502022 C3.71895588,56.3692842 4.68624488,55.9411673 5.6549733,55.5159045 C7.10878564,54.8865727 8.57123448,54.2743655 10.0279257,53.6478878 C11.2024909,53.1370016 12.3770561,52.6218343 13.5199541,52.0438765 C13.9157941,51.8426616 14.3073158,51.6343113 14.6902011,51.4102635 C15.0543738,51.1976321 15.4142284,50.9707302 15.7380975,50.7024436 L15.7784012,50.6667672 L15.7942348,50.6539237 L24.3256662,23.8709308 C24.3846823,23.7153816 24.3846823,23.7153816 24.4609715,23.5669678 C24.5818826,23.3643258 24.7056726,23.1645379 24.8309019,22.96475 C25.6988711,21.6033383 26.6388111,20.2875924 27.6291308,19.010377 C28.6827849,17.6518194 29.7954552,16.3375005 30.9599444,15.0731286 C31.7285937,14.2397277 32.5188343,13.4291597 33.333545,12.6399976 C38.3096135,7.82796371 44.2270616,3.84790366 50.8771734,1.71445447 C52.0877241,1.3248681 53.3184266,0.99949926 54.5635233,0.739775011 C56.0274116,0.43438496 57.5114517,0.22175357 59.0041283,0.106162008 C59.7295951,0.0490797557 60.4579407,0.0176845169 61.1862863,0.00341395373 C61.4612151,0.000559841106 61.7375834,-0.000867215206 62.0125123,0.000559841106 Z M61.4871247,2.97311814 C60.8192346,2.98168048 60.1513446,3.00451338 59.484894,3.05160624 C58.1174468,3.14721901 56.7557572,3.33273633 55.41278,3.60244997 C54.3418529,3.81650842 53.2824412,4.08479501 52.2403024,4.40445562 C45.8536041,6.35952277 40.1822966,10.1711902 35.4278984,14.7691656 C34.6549308,15.5169431 33.9035546,16.2875535 33.175209,17.0781427 C31.891248,18.4709497 30.6749397,19.9265471 29.5363599,21.4392268 C28.707255,22.5366331 27.9141356,23.6654347 27.1915477,24.8341938 L27.1325316,24.9312336 L18.5478417,51.8811921 L18.4758708,52.0652823 C18.4427642,52.1223646 18.4154152,52.182301 18.3794298,52.2379562 C18.2901859,52.3749536 18.1764718,52.4976804 18.0613184,52.614699 C17.8929064,52.7887999 17.7086609,52.9486302 17.5172183,53.0998982 C16.9155415,53.576535 16.2476515,53.9661214 15.5740038,54.3314478 C14.3418619,54.996456 13.0607797,55.5715597 11.7782581,56.1338199 C10.3172487,56.7717141 8.84616335,57.3853483 7.38083567,58.0132531 C6.8755999,58.2315927 6.37180354,58.4527864 5.86944661,58.6768342 C5.22890553,58.9665267 4.59124329,59.2619273 3.96797523,59.5872962 C3.80100272,59.6743466 3.63546963,59.7642512 3.47281538,59.8570098 C3.32023706,59.9426332 3.17053757,60.039673 3.04530819,60.1623999 L3.03091401,60.1766704 C3.11152142,60.3165219 3.22811429,60.4378217 3.34470716,60.5477051 C3.55774105,60.74892 3.79812388,60.9244479 4.04426439,61.0842782 C4.82155019,61.5880291 5.68807992,61.9604908 6.56468557,62.2587456 C7.32469836,62.5156157 8.11062067,62.7211118 8.90517949,62.8381304 C9.50397744,62.9266079 10.1099725,62.9665655 10.7145281,62.9922525 C11.4227218,63.0236478 12.132355,63.029356 12.8419881,63.0250748 C14.9910394,63.0122313 17.1415302,62.902348 19.2877026,62.7724859 C20.9459123,62.6725919 22.6026826,62.5541462 24.2580135,62.4299923 C26.1148629,62.2887138 27.9702729,62.1388729 29.8242435,61.9847508 C32.4871671,61.763557 35.1500907,61.5238116 37.8144537,61.3140343 C38.3081741,61.2783579 38.8018945,61.2441085 39.295615,61.2112863 C43.3504559,60.9644055 47.4110545,60.8231269 51.4716531,60.7061083 C55.8417267,60.5791003 60.2118002,60.4877687 64.5833131,60.4092806 C75.040686,60.2223362 85.4994983,60.1167341 95.9583106,60.038246 C98.8285104,60.0168401 101.70015,59.9968613 104.570349,59.9783096 C106.693491,59.964039 108.816633,59.9569038 110.938335,59.9326438 C111.191673,59.9283626 111.445011,59.9212273 111.696909,59.912665 C112.246766,59.888405 112.796624,59.8527286 113.343603,59.7842299 C113.785504,59.7285747 114.224527,59.6515137 114.652034,59.5230786 L114.73696,59.4959646 L114.808931,59.4702776 C114.741278,59.3889353 114.670747,59.3133014 114.598776,59.2376674 C114.182784,58.8195399 113.710655,58.4613487 113.225571,58.1274176 C112.642606,57.7249877 112.033733,57.3568072 111.407586,57.022876 L111.220461,56.9030032 C111.072201,56.7745682 111.02614,56.7503082 110.909547,56.5904779 C110.821742,56.4720322 110.75265,56.3407431 110.70371,56.2008915 C110.67924,56.1323928 110.664846,56.059613 110.646133,55.9882601 C110.571284,55.5901114 110.499313,55.1905357 110.428781,54.7909599 C110.096276,52.8458821 109.801195,50.8950962 109.549297,48.938602 C109.462932,48.2721667 109.382324,47.6057314 109.306035,46.937869 C109.257095,46.505471 109.215352,46.0730729 109.160654,45.6406748 C109.136184,45.4565846 109.107395,45.2739214 109.077168,45.0898311 C108.87421,43.9396237 108.592084,42.8051139 108.289806,41.6777394 C107.935709,40.3619935 107.545627,39.056237 107.139711,37.7561887 C106.042874,34.2527655 104.823687,30.7835916 103.512377,27.3515211 C102.730773,25.3051224 101.917502,23.267286 101.022184,21.265126 C100.719906,20.5887013 100.406113,19.9151307 100.067849,19.2544036 C99.8130724,18.7549339 99.5482195,18.2554642 99.2099562,17.8045144 C98.8673747,17.3464293 98.4801712,16.9211665 98.0814524,16.5101743 C97.4999274,15.9108107 96.8852959,15.3428423 96.2519519,14.7977067 C94.4958618,13.2878812 92.592951,11.9478753 90.6108722,10.7448668 C85.0360056,7.3613163 78.7961279,5.08516148 72.3734441,3.91640236 C69.0368729,3.30990343 65.649922,3.0102216 62.2586528,2.9745452 C62.0009969,2.97311814 61.7433411,2.97311814 61.4871247,2.97311814 Z" id="Shape" fill="#133D8D" fill-rule="nonzero"></path>
						<path d="M62.0125123,0.000559841106 C63.3410952,0.00912217898 64.6682388,0.0519338684 65.9939429,0.14041136 C68.314285,0.294533441 70.6274299,0.577090591 72.9146654,0.992363978 C79.7000826,2.22676769 86.2882994,4.63563874 92.1769591,8.20898775 C94.3663141,9.53757718 96.4664252,11.0259969 98.3952455,12.7070692 C99.0343472,13.2636212 99.6547364,13.8430061 100.244898,14.4509321 C100.729982,14.9518288 101.199232,15.4727044 101.618103,16.0321105 C102.201067,16.8112832 102.644408,17.6903499 103.067597,18.5622813 C103.581469,19.6211571 104.053598,20.7000117 104.511333,21.7845745 C105.141798,23.2787024 105.739157,24.7856739 106.316364,26.2983536 C107.023118,28.1463915 107.699644,30.0058459 108.348822,31.8752896 C109.21967,34.3854817 110.047335,36.9127984 110.782878,39.4658022 C111.089474,40.5303862 111.381676,41.6006784 111.636453,42.679533 C111.849487,43.5842867 112.03949,44.4933216 112.154644,45.4151999 C112.217978,45.9803142 112.278434,46.5440015 112.344647,47.1076887 C112.648364,49.6449948 113.012537,52.1737386 113.455878,54.691066 L113.468832,54.7609917 C113.683306,54.8851456 113.89634,55.0135807 114.107934,55.1434428 C114.270588,55.2461909 114.433243,55.350366 114.594457,55.4559681 C115.295454,55.9226156 115.980617,56.4192312 116.586612,57.0043242 C116.979573,57.3824942 117.342307,57.8006217 117.60716,58.2772585 C117.77989,58.5869297 117.909437,58.923715 117.967014,59.2747708 C118.008757,59.5302139 118.011636,59.7913652 117.971332,60.0468083 C117.942544,60.2366068 117.887846,60.4235512 117.812996,60.6019332 C117.759738,60.7289412 117.693525,60.8530951 117.618675,60.9686867 C117.058741,61.839191 116.033876,62.2587456 115.060829,62.4956369 C114.882341,62.5384486 114.700974,62.5769791 114.521047,62.6098014 C114.256194,62.6597484 113.989902,62.699706 113.72217,62.7339553 C113.343603,62.7810482 112.963597,62.8167246 112.58359,62.8424116 C112.051006,62.878088 111.518421,62.8952127 110.985836,62.9052021 C108.854058,62.9308891 106.72228,62.9365973 104.590501,62.9508679 C100.904151,62.9765549 97.2178015,63.0022419 93.5314516,63.030783 C82.5314181,63.1235417 71.5313845,63.2348521 60.5327904,63.460327 C56.380069,63.5445233 52.2273477,63.6458443 48.0760657,63.7871229 C46.355961,63.8456322 44.6344169,63.9112768 42.9157516,63.992619 C41.1812528,64.0739612 39.4467539,64.169574 37.7151338,64.3051443 C34.7815996,64.5463169 31.8495049,64.8017599 28.9159707,65.0429325 C26.4128225,65.2470015 23.9082349,65.4453623 21.4022079,65.615182 C19.5799045,65.7393359 17.7561617,65.8492193 15.9309795,65.9219991 C14.6772463,65.9719461 13.4235131,66.0061955 12.1697799,65.9990602 C11.543633,65.994779 10.9174861,65.9819355 10.2913392,65.9491132 C9.67958646,65.917718 9.06783374,65.867771 8.46327812,65.7792935 C7.63849152,65.6565667 6.82378084,65.4596329 6.02922202,65.2127522 C5.52110741,65.0543489 5.0201899,64.8745398 4.53078772,64.6704708 C4.12055355,64.5006511 3.71751647,64.3151337 3.32455531,64.1082106 C3.07121772,63.9754943 2.82363779,63.8356428 2.58037613,63.6843748 C2.40332769,63.5744915 2.2291581,63.460327 2.05930675,63.3390272 C1.20717121,62.7311012 0.395339368,61.9305226 0.106016319,60.900188 C0.0657126106,60.7532012 0.0354848294,60.6033603 0.0182118115,60.4535193 C-0.00481887892,60.2565856 -0.00625829707,60.0582248 0.0153329752,59.861291 C0.0398030839,59.6201185 0.0988192282,59.3832271 0.186623736,59.1563252 C0.317610788,58.822394 0.513371656,58.5155769 0.750875652,58.2444362 C1.29929397,57.6179585 2.04347315,57.2240909 2.77757641,56.8502022 C3.71895588,56.3692842 4.68624488,55.9411673 5.6549733,55.5159045 C7.10878564,54.8865727 8.57123448,54.2743655 10.0279257,53.6478878 C11.2024909,53.1370016 12.3770561,52.6218343 13.5199541,52.0438765 C13.9157941,51.8426616 14.3073158,51.6343113 14.6902011,51.4102635 C15.0543738,51.1976321 15.4142284,50.9707302 15.7380975,50.7024436 L15.7784012,50.6667672 L15.7942348,50.6539237 L24.3256662,23.8709308 C24.3846823,23.7153816 24.3846823,23.7153816 24.4609715,23.5669678 C24.5818826,23.3643258 24.7056726,23.1645379 24.8309019,22.96475 C25.6988711,21.6033383 26.6388111,20.2875924 27.6291308,19.010377 C28.6827849,17.6518194 29.7954552,16.3375005 30.9599444,15.0731286 C31.7285937,14.2397277 32.5188343,13.4291597 33.333545,12.6399976 C38.3096135,7.82796371 44.2270616,3.84790366 50.8771734,1.71445447 C52.0877241,1.3248681 53.3184266,0.99949926 54.5635233,0.739775011 C56.0274116,0.43438496 57.5114517,0.22175357 59.0041283,0.106162008 C59.7295951,0.0490797557 60.4579407,0.0176845169 61.1862863,0.00341395373 C61.4612151,0.000559841106 61.7375834,-0.000867215206 62.0125123,0.000559841106 Z M61.4871247,2.97311814 C60.8192346,2.98168048 60.1513446,3.00451338 59.484894,3.05160624 C58.1174468,3.14721901 56.7557572,3.33273633 55.41278,3.60244997 C54.3418529,3.81650842 53.2824412,4.08479501 52.2403024,4.40445562 C45.8536041,6.35952277 40.1822966,10.1711902 35.4278984,14.7691656 C34.6549308,15.5169431 33.9035546,16.2875535 33.175209,17.0781427 C31.891248,18.4709497 30.6749397,19.9265471 29.5363599,21.4392268 C28.707255,22.5366331 27.9141356,23.6654347 27.1915477,24.8341938 L27.1325316,24.9312336 L18.5478417,51.8811921 L18.4758708,52.0652823 C18.4427642,52.1223646 18.4154152,52.182301 18.3794298,52.2379562 C18.2901859,52.3749536 18.1764718,52.4976804 18.0613184,52.614699 C17.8929064,52.7887999 17.7086609,52.9486302 17.5172183,53.0998982 C16.9155415,53.576535 16.2476515,53.9661214 15.5740038,54.3314478 C14.3418619,54.996456 13.0607797,55.5715597 11.7782581,56.1338199 C10.3172487,56.7717141 8.84616335,57.3853483 7.38083567,58.0132531 C6.8755999,58.2315927 6.37180354,58.4527864 5.86944661,58.6768342 C5.22890553,58.9665267 4.59124329,59.2619273 3.96797523,59.5872962 C3.80100272,59.6743466 3.63546963,59.7642512 3.47281538,59.8570098 C3.32023706,59.9426332 3.17053757,60.039673 3.04530819,60.1623999 L3.03091401,60.1766704 C3.11152142,60.3165219 3.22811429,60.4378217 3.34470716,60.5477051 C3.55774105,60.74892 3.79812388,60.9244479 4.04426439,61.0842782 C4.82155019,61.5880291 5.68807992,61.9604908 6.56468557,62.2587456 C7.32469836,62.5156157 8.11062067,62.7211118 8.90517949,62.8381304 C9.50397744,62.9266079 10.1099725,62.9665655 10.7145281,62.9922525 C11.4227218,63.0236478 12.132355,63.029356 12.8419881,63.0250748 C14.9910394,63.0122313 17.1415302,62.902348 19.2877026,62.7724859 C20.9459123,62.6725919 22.6026826,62.5541462 24.2580135,62.4299923 C26.1148629,62.2887138 27.9702729,62.1388729 29.8242435,61.9847508 C32.4871671,61.763557 35.1500907,61.5238116 37.8144537,61.3140343 C38.3081741,61.2783579 38.8018945,61.2441085 39.295615,61.2112863 C43.3504559,60.9644055 47.4110545,60.8231269 51.4716531,60.7061083 C55.8417267,60.5791003 60.2118002,60.4877687 64.5833131,60.4092806 C75.040686,60.2223362 85.4994983,60.1167341 95.9583106,60.038246 C98.8285104,60.0168401 101.70015,59.9968613 104.570349,59.9783096 C106.693491,59.964039 108.816633,59.9569038 110.938335,59.9326438 C111.191673,59.9283626 111.445011,59.9212273 111.696909,59.912665 C112.246766,59.888405 112.796624,59.8527286 113.343603,59.7842299 C113.785504,59.7285747 114.224527,59.6515137 114.652034,59.5230786 L114.73696,59.4959646 L114.808931,59.4702776 C114.741278,59.3889353 114.670747,59.3133014 114.598776,59.2376674 C114.182784,58.8195399 113.710655,58.4613487 113.225571,58.1274176 C112.642606,57.7249877 112.033733,57.3568072 111.407586,57.022876 L111.220461,56.9030032 C111.072201,56.7745682 111.02614,56.7503082 110.909547,56.5904779 C110.821742,56.4720322 110.75265,56.3407431 110.70371,56.2008915 C110.67924,56.1323928 110.664846,56.059613 110.646133,55.9882601 C110.571284,55.5901114 110.499313,55.1905357 110.428781,54.7909599 C110.096276,52.8458821 109.801195,50.8950962 109.549297,48.938602 C109.462932,48.2721667 109.382324,47.6057314 109.306035,46.937869 C109.257095,46.505471 109.215352,46.0730729 109.160654,45.6406748 C109.136184,45.4565846 109.107395,45.2739214 109.077168,45.0898311 C108.87421,43.9396237 108.592084,42.8051139 108.289806,41.6777394 C107.935709,40.3619935 107.545627,39.056237 107.139711,37.7561887 C106.042874,34.2527655 104.823687,30.7835916 103.512377,27.3515211 C102.730773,25.3051224 101.917502,23.267286 101.022184,21.265126 C100.719906,20.5887013 100.406113,19.9151307 100.067849,19.2544036 C99.8130724,18.7549339 99.5482195,18.2554642 99.2099562,17.8045144 C98.8673747,17.3464293 98.4801712,16.9211665 98.0814524,16.5101743 C97.4999274,15.9108107 96.8852959,15.3428423 96.2519519,14.7977067 C94.4958618,13.2878812 92.592951,11.9478753 90.6108722,10.7448668 C85.0360056,7.3613163 78.7961279,5.08516148 72.3734441,3.91640236 C69.0368729,3.30990343 65.649922,3.0102216 62.2586528,2.9745452 C62.0009969,2.97311814 61.7433411,2.97311814 61.4871247,2.97311814 Z" id="Shape" fill="#133D8D" fill-rule="nonzero"></path>
						<path d="M65.0161277,7 C66.6648693,7.01282483 68.3107384,7.09119881 69.952299,7.24367183 C74.3025064,7.6455166 78.601011,8.51618028 82.7989827,9.70746478 C84.2308601,10.1135845 85.6526843,10.5581787 87.0615827,11.0355475 C87.5513221,11.2008454 88.0396254,11.3704182 88.5264924,11.5442659 C88.7921868,11.6397396 89.0952221,11.7223886 89.3365013,11.8819865 C89.4873009,11.9817352 89.6179938,12.1085586 89.7228354,12.2553316 C89.8291131,12.4006798 89.9066672,12.5659776 89.9526251,12.7398253 C90.1077332,13.3297677 89.8736349,13.9710093 89.372406,14.3244047 C89.0765517,14.533877 88.7074519,14.6307757 88.3469692,14.5923012 C88.1861163,14.5752015 88.1487755,14.5566767 87.9951036,14.5110773 C87.6762703,14.3970788 87.357437,14.2830803 87.0386037,14.1705067 C85.6598652,13.691713 84.2739457,13.2371439 82.8751006,12.8224743 C81.704609,12.4762038 80.5269365,12.1555829 79.342083,11.8634617 C78.3597318,11.6197899 77.3716358,11.3974928 76.3806675,11.1965704 C70.1418755,9.93261185 63.6675491,9.51651727 57.3641288,10.5539038 C56.5095981,10.693552 55.659376,10.8616998 54.8163348,11.0554972 C53.4217982,11.3775431 52.0444959,11.7751129 50.6959172,12.2496317 C49.0285053,12.8381491 47.4041789,13.5449399 45.8430448,14.3700041 C43.9630773,15.3646412 42.1664086,16.5274261 40.5076138,17.8555088 C38.8157867,19.2092412 37.2460354,20.7140216 35.8586797,22.37555 C35.4235154,22.8985182 35.0055853,23.4357362 34.6120703,23.990054 C34.3233969,24.3961737 34.0433406,24.8108433 33.7963167,25.2454627 L33.698656,25.3950857 C33.5966868,25.5176341 33.575144,25.5532587 33.451632,25.6558573 C33.1730119,25.8867043 32.8125293,26.0106777 32.4491742,25.9992779 C32.2682148,25.9935779 32.0886915,25.9565284 31.9220939,25.8867043 C31.7540602,25.8183052 31.6003883,25.7199815 31.4682592,25.5974331 C31.0201691,25.1784885 30.8765505,24.5115972 31.112085,23.9487295 C31.1838943,23.7748818 31.2901721,23.6110089 31.3878327,23.451411 C31.5156533,23.2447887 31.6477824,23.0395914 31.7813477,22.837244 C32.1834798,22.2316269 32.6186441,21.6459595 33.0710427,21.0759669 C34.7398909,18.9726943 36.6787419,17.0774689 38.7928077,15.4145155 C41.1495889,13.5606147 43.7361599,11.995985 46.4692218,10.7505512 C48.8374925,9.67326523 51.3134772,8.83537613 53.8454731,8.23260897 C56.1261365,7.68969103 58.4527578,7.33629563 60.7894324,7.15247302 C61.9556154,7.0612742 63.1217984,7.0156748 64.2908538,7.00142498 C64.5321331,7 64.7748485,7 65.0161277,7 Z" id="Path" fill="#133D8D"></path>
						<g id="Group" transform="translate(93.902220, 66.481329) rotate(30.715321) translate(-93.902220, -66.481329) translate(74.402220, 58.481329)" fill="#133D8D">
							<path d="M20.9466196,0.867090775 C20.988198,0.847123555 21.0297763,0.827156335 21.0727883,0.810041576 C21.2434029,0.744434997 21.426921,0.708779247 21.6118729,0.708779247 C21.7337404,0.708779247 21.7638488,0.715910397 21.8857163,0.733025157 L33.1046959,2.78251763 L33.0129369,2.78537009 C33.1577441,2.78394386 33.3039851,2.78822255 33.4487924,2.79392747 C33.6867925,2.80676354 33.9233588,2.82530453 34.1613589,2.85382913 C34.3878891,2.8809275 34.6129856,2.91800948 34.8352146,2.96364884 C35.9649981,3.19327187 37.0890466,3.67676383 37.8546613,4.56102642 C37.9922999,4.72076417 38.1156012,4.89048554 38.2245651,5.07019052 C38.3722398,5.31264961 38.4912399,5.5736497 38.5801315,5.84320717 C38.6733243,6.1256007 38.7321074,6.41940408 38.7593484,6.71463368 C38.7751195,6.89433866 38.7765532,7.07261741 38.7779869,7.25089615 C38.7808544,7.47909295 38.7894568,7.70586352 38.7966255,7.93263408 C38.8195653,8.4375195 38.84824,8.94240491 38.869746,9.44729032 C38.8783484,9.71542156 38.8855171,9.98212656 38.8883846,10.2502578 C38.8898183,11.5766517 38.7665171,12.9971767 37.9707939,14.1124886 C37.8589625,14.2708001 37.7342276,14.4205543 37.5980227,14.5588986 C37.4102034,14.7514396 37.200878,14.921161 36.9757815,15.0666364 C36.6847332,15.2548988 36.3678777,15.4018005 36.0366848,15.5073415 C35.5492148,15.6642268 35.0416725,15.7269809 34.5312627,15.739817 C34.155624,15.7426694 33.781419,15.7369645 33.4057804,15.7326858 C28.8622728,15.6713579 24.3187653,15.5615382 19.7752578,15.4588497 C13.981533,15.3276365 8.18780821,15.187866 2.39408341,15.0480954 L2.25644481,15.0381118 C2.13601103,15.0181446 2.10446885,15.0181446 1.98690255,14.9810626 C1.72309523,14.8997675 1.48366142,14.7443085 1.30301076,14.5360789 C1.18257698,14.3977346 1.08795045,14.2379968 1.02486609,14.065423 C0.81840819,13.494931 0.991890174,12.8388652 1.45211924,12.440947 C1.55678193,12.3510946 1.67291449,12.2755044 1.79764948,12.2170289 C1.96396278,12.1400125 2.14604718,12.0929469 2.32956531,12.0801109 C2.37544485,12.0772584 2.42132438,12.0786846 2.46720391,12.0772584 C7.31609707,12.1956355 12.166424,12.3097339 17.0153171,12.4238323 C20.619728,12.5065536 24.222705,12.5878487 27.8271159,12.6620127 C30.0221648,12.7062258 32.2172137,12.7589963 34.4136964,12.7689799 C34.5126241,12.7689799 34.6115518,12.7647012 34.7104796,12.7575701 C34.9384435,12.7333242 35.1879135,12.6933897 35.3786003,12.5550454 C35.580757,12.4081438 35.6768173,12.1528486 35.7427691,11.9232256 C35.7571064,11.8676026 35.7714438,11.8119796 35.7843474,11.7563567 C35.9205523,11.1345204 35.9105161,10.4841595 35.894745,9.8509134 C35.8746727,9.25189681 35.8402631,8.65430645 35.8130221,8.05528986 C35.8015522,7.74579796 35.8001185,7.74722419 35.7929498,7.43773228 C35.7900823,7.28797813 35.7958173,7.13679776 35.7843474,6.98846984 C35.7786125,6.92571572 35.7685763,6.86581406 35.7528052,6.8059124 C35.7341667,6.74173205 35.7112269,6.68040416 35.6768173,6.62192873 C35.5377449,6.37946964 35.2725039,6.22686303 35.0244676,6.11561709 C34.7965037,6.01435476 34.5556362,5.94304326 34.3104674,5.89027276 C33.982142,5.81753503 33.6466479,5.77760059 33.3111538,5.76191206 C33.1778164,5.75478091 33.044479,5.75763337 32.9125754,5.75478091 L32.8122139,5.74764976 C28.9683693,5.17715777 25.1675367,4.35422307 21.3466318,3.65537038 L21.2118607,3.62399332 C21.1674149,3.60973102 21.1244028,3.59832118 21.0813908,3.58120642 C20.9093425,3.51559984 20.7501979,3.4186162 20.6125593,3.29596043 C20.5107641,3.20325548 20.4218725,3.09628823 20.348752,2.9807636 C20.0519687,2.50725525 20.050535,1.8911239 20.343017,1.41618932 C20.440511,1.26073025 20.565246,1.12238594 20.7129208,1.01114 C20.7487641,0.984041633 20.787475,0.959795723 20.8261859,0.934123584 C20.8663304,0.911303904 20.906475,0.888484224 20.9466196,0.867090775 Z" id="Path"></path>
						</g>
						<g id="Group" transform="translate(104.206080, 74.346031) rotate(36.537569) translate(-104.206080, -74.346031) translate(102.706080, 72.846031)" fill="#133D8D">
							<ellipse id="Oval" cx="1.43304634" cy="1.42685506" rx="1.43373554" ry="1.42623011"></ellipse>
						</g>
						<g id="Group" transform="translate(101.058172, 72.025699) rotate(36.537569) translate(-101.058172, -72.025699) translate(99.558172, 70.525699)" fill="#133D8D">
							<ellipse id="Oval" cx="1.43304634" cy="1.42685506" rx="1.43373554" ry="1.42623011"></ellipse>
						</g>
						<g id="Group" transform="translate(97.505755, 69.411473) rotate(36.537569) translate(-97.505755, -69.411473) translate(95.505755, 67.911473)" fill="#133D8D">
							<ellipse id="Oval" cx="2.43302433" cy="1.42216396" rx="1.43373554" ry="1.42623011"></ellipse>
						</g>
						<path d="M104.691491,52.0111395 C104.761983,52.025064 104.832474,52.0334186 104.901527,52.0529128 C105.177739,52.1267123 105.428056,52.2770961 105.61939,52.4831776 C105.714338,52.5862184 105.793461,52.7031836 105.855321,52.827111 C105.915742,52.9524308 105.9589,53.0847129 105.981918,53.2211723 C106.061041,53.7043499 105.8769,54.2056293 105.499986,54.5314609 C105.340301,54.6693127 105.150406,54.7737459 104.946124,54.8350134 C104.877071,54.8559 104.80658,54.8670396 104.737527,54.8823564 C104.379314,54.9380541 104.019664,54.9881821 103.658574,55.03831 C100.296559,55.4908539 96.9187197,55.8375721 93.5394414,56.1494793 C89.5286164,56.5198691 85.5105984,56.8303838 81.4911418,57.1033026 C79.2310966,57.2564712 76.9696128,57.3985004 74.708129,57.52939 C73.0897007,57.6226837 71.472711,57.7173698 69.8542827,57.7897768 C67.8517475,57.8802856 65.8477736,57.9387682 63.8437997,57.9707944 C56.5860479,58.0863671 49.3225417,57.8538292 42.0834918,57.3636893 C38.8710914,57.1464683 35.6615683,56.8763344 32.4592382,56.5505028 C30.1502805,56.3165724 27.8442,56.0561856 25.5453125,55.7442785 L25.2834868,55.7080749 C25.2144338,55.6941505 25.1425037,55.6844034 25.0748893,55.6649092 C24.8001162,55.5869324 24.5512379,55.4309788 24.3642195,55.2221124 C24.2707103,55.1176792 24.1930257,55.0007141 24.134043,54.8753942 C23.924007,54.4298125 23.9628493,53.8992919 24.2361838,53.4885213 C24.3138684,53.3715561 24.4073776,53.2671229 24.5152728,53.1766141 C24.623168,53.0861053 24.7440107,53.0109134 24.8749235,52.9538233 C25.0691349,52.8674918 25.2834868,52.8229336 25.4978386,52.8229336 C25.5683301,52.8229336 25.6388217,52.8326807 25.7107518,52.8368581 C26.2272103,52.9092651 26.7436687,52.9761023 27.2615658,53.0429396 C32.8275205,53.7349836 38.4179315,54.236263 44.0169741,54.5815888 C50.2461248,54.965903 56.4896615,55.1538827 62.730321,55.0856531 C64.8781552,55.0619815 67.0259894,55.0062838 69.1723849,54.915775 C70.9591298,54.8405831 72.744436,54.7375424 74.5283037,54.6331092 C76.7797172,54.503612 79.0311308,54.3615828 81.2811058,54.2098066 C85.6674061,53.9118238 90.0508293,53.5692829 94.4270594,53.1515501 C96.2914888,52.9733175 98.1544796,52.7825528 100.014593,52.5681166 C101.397091,52.4079857 102.779588,52.2381077 104.156331,52.0348111 L104.265665,52.0181018 L104.478578,52 C104.54907,52.0041773 104.621,52.0083547 104.691491,52.0111395 Z" id="Path" fill="#3DB200"></path>
					</g>
				</g>
			</g>
		</g>
	</g>
</svg>