<?xml version="1.0" ?>
<svg width="135px" height="123px" viewBox="0 0 135 123" version="1.1" xmlns="http://www.w3.org/2000/svg" xmlns:xlink="http://www.w3.org/1999/xlink">
	<g id="Mockup" stroke="none" stroke-width="1" fill="none" fill-rule="evenodd">
		<g id="Desktop-//-Homepage-" transform="translate(-291.000000, -3429.000000)">
			<g id="Experience-with-Many-Caste-Types" transform="translate(227.000000, 3199.000000)">
				<g id="Auto-Accident" transform="translate(54.000000, 230.000000)">
					<g id="Accident" transform="translate(10.000000, 0.000000)">
						<path d="M108.804472,103.223377 L104.730423,105.900702 C104.031149,106.360212 103.792304,107.376453 104.196949,108.17054 C104.601594,108.964628 105.496497,109.235857 106.195771,108.776347 L110.26982,106.099022 C110.722171,105.801772 111.000514,105.253053 110.999999,104.659564 C110.999485,104.066075 110.720191,103.51798 110.267325,103.221741 C109.81446,102.925503 109.256823,102.926126 108.804472,103.223377 Z" id="Path" fill="#133D8D"></path>
						<path d="M94.5034028,104.000001 C90.6604738,103.99868 87.1952715,106.312763 85.7240362,109.862914 C84.252801,113.413065 85.0653613,117.499916 87.7827226,120.217277 C90.5000839,122.934639 94.5869351,123.747199 98.137086,122.275964 C101.687237,120.804729 104.00132,117.339526 103.999999,113.496597 C103.992807,108.254754 99.745246,104.007193 94.5034028,104.000001 Z M94.5034028,119.493589 C91.1913559,119.493589 88.5064114,116.808644 88.5064114,113.496597 C88.5064114,110.18455 91.1913559,107.499606 94.5034028,107.499606 C97.8154497,107.499606 100.500394,110.18455 100.500394,113.496597 C100.493206,116.805133 97.8119422,119.484937 94.5034028,119.490324 L94.5034028,119.493589 Z" id="Shape" fill="#133D8D" fill-rule="nonzero"></path>
						<path d="M30.2696024,105.900844 L26.1956946,103.223643 C25.4964447,102.764154 24.6015727,103.035371 24.1969421,103.829421 C23.7923115,104.623472 24.0311476,105.639667 24.7303975,106.099156 L28.8043054,108.776357 C29.5035553,109.235846 30.3984273,108.96463 30.8030579,108.170579 C31.2076885,107.376528 30.9688524,106.360333 30.2696024,105.900844 Z" id="Path" fill="#133D8D"></path>
						<path d="M40.5001385,104 C36.6575063,104 33.1933059,106.314921 31.7230995,109.865176 C30.252893,113.415432 31.0662593,117.501748 33.7838774,120.218432 C36.5014955,122.935116 40.5880904,123.747078 44.1378405,122.275651 C47.6875905,120.804225 50.0013199,117.339229 49.9999994,113.496597 C49.9945983,108.252736 45.744001,104.003599 40.5001385,104 Z M40.5001385,119.493588 C37.1885172,119.491786 34.5052105,116.806043 34.5064121,113.494422 C34.5076138,110.1828 37.1928689,107.499006 40.5044906,107.499606 C43.8161123,107.500207 46.5003938,110.184975 46.5003943,113.496597 C46.4949942,116.80715 43.8106958,119.488528 40.5001385,119.490324 L40.5001385,119.493588 Z" id="Shape" fill="#133D8D" fill-rule="nonzero"></path>
						<path d="M76.4392217,74.4703712 C76.5705534,75.0521027 76.9886171,75.5227587 77.5436005,75.7136805 C78.0985839,75.9046022 78.7110273,75.7884546 79.1614626,75.4068587 L93.0527588,63.6558638 L92.2817195,69.3934538 C92.1979553,70.0018758 92.4390658,70.6096212 92.9142269,70.9877582 C93.389388,71.3658952 94.0264115,71.4569758 94.5853367,71.2266908 C95.1442619,70.9964059 95.5401748,70.4797411 95.6239389,69.8713191 L96.9834858,59.7559702 C97.0806414,59.0529542 96.7429082,58.3615662 96.1339171,58.0167821 C95.524926,57.6719981 94.7704648,57.7450335 94.2360681,58.2005028 L79.1142561,70.9906142 L76.4769869,59.2877264 C76.3101926,58.5868611 75.7318518,58.0666046 75.0287266,57.9849189 C74.3256014,57.9032332 73.6471958,58.2774868 73.3298877,58.9221114 L67.8444936,70.4325702 L50.1420603,48.6239551 C49.6641707,48.0347411 48.8618941,47.8379064 48.1732237,48.1409105 C47.4845533,48.4439146 47.074958,49.1739538 47.1680514,49.932472 L50.0287647,73.3991833 L48.5087157,73.5691622 C47.6159424,73.6657987 46.9538767,74.4581274 47.0025162,75.3717099 C47.0511557,76.2852924 47.7934552,76.9999715 48.6912475,76.9976048 C48.7531008,77.0007984 48.8150731,77.0007984 48.8769263,76.9976048 L52.099556,76.6351969 C52.5488596,76.584691 52.9594735,76.3525278 53.2393211,75.990768 C53.5191686,75.6290081 53.6448326,75.1679231 53.5881339,74.7109074 L51.2278095,55.3782115 L66.903511,74.682043 C67.269523,75.1322673 67.8349895,75.3620462 68.404571,75.2920031 C68.9741524,75.22196 69.4697517,74.8616987 69.7201648,74.3356709 L74.2582819,64.8072304 L76.4392217,74.4703712 Z" id="Path" fill="#3DB200"></path>
						<path d="M107.003994,71.1234558 C104.972423,71.3108171 103.006566,71.9354035 101.243617,72.9536266 L91.3441415,78.7135548 C88.5145312,80.3578039 86.5686654,83.1638981 86.0335991,86.371782 L85.2682562,90.9146932 C84.9429122,92.876687 83.8551436,94.6342498 82.2381232,95.8106322 L75.5874498,100.672507 C72.562335,102.870566 70.8451076,106.421623 71.0110118,110.136131 C71.1703281,113.669507 72.0575011,116.791016 73.6475399,119.426338 C75.000274,121.650455 77.4315954,123.007232 80.0514293,122.999971 C81.349082,123.001861 82.6241113,122.663166 83.746942,122.018306 C84.2647862,121.721249 84.5834286,121.172888 84.5828395,120.579786 C84.5822505,119.986684 84.2625195,119.438946 83.7440862,119.142901 C83.2256529,118.846855 82.5872796,118.847478 82.0694354,119.144535 C80.1357525,120.241954 77.6720185,119.60972 76.5183567,117.720037 C75.2188357,115.570902 74.490979,112.972741 74.3566535,109.996778 C74.2424444,107.388797 75.4496579,104.896566 77.5742174,103.35428 L84.2248908,98.4924053 C86.5448477,96.8048479 88.1057922,94.2836585 88.5732879,91.4690089 L89.3355069,86.9322912 C89.709827,84.6957526 91.0672381,82.7397107 93.0403912,81.593519 L102.939867,75.830494 C104.277405,75.0541969 105.770125,74.5775013 107.313255,74.4338662 C118.762159,73.3747826 126.42496,80.1194728 130.838958,85.9599162 C131.825956,87.2672944 131.918507,89.0362084 131.073246,90.4377959 C130.634772,91.2233542 130.905864,92.2121503 131.68513,92.6696194 C132.464396,93.1270884 133.469355,92.887399 133.953434,92.1286136 C135.493302,89.5735177 135.321716,86.3490269 133.51922,83.9687152 C129.47696,78.629943 120.680202,69.856891 107.003994,71.1234558 Z" id="Path" fill="#133D8D"></path>
						<path d="M120.496734,89 C115.250455,89.0018035 110.998798,93.2558967 111,98.5021767 C111.001202,103.748457 115.254808,108.000601 120.501088,108 C125.747368,107.999399 130,103.74628 130,98.5000003 C129.994597,93.2542597 125.742476,89.0036001 120.496734,89 Z M120.496734,104.499141 C117.183926,104.497338 114.499658,101.810633 114.50086,98.4978243 C114.502062,95.1850158 117.188279,92.5002597 120.501088,92.5008605 C123.813897,92.5014613 126.49914,95.1871916 126.499141,98.5000003 C126.495538,101.813016 123.809751,104.497342 120.496734,104.499141 Z" id="Shape" fill="#133D8D" fill-rule="nonzero"></path>
						<path d="M59.4128489,100.688197 L52.7621421,95.8239443 C51.1437317,94.6462657 50.0558032,92.8864899 49.7319939,90.9225361 L48.969771,86.3864888 C48.4338759,83.1794089 46.4882196,80.3740455 43.6592019,78.7293931 L33.7565525,72.9641234 C31.9946207,71.941712 30.0286951,71.3129723 27.996147,71.121838 C14.3198697,69.8647491 5.50432497,78.627216 1.48078793,83.9621031 C-0.32171796,86.342063 -0.49330455,89.5660774 1.04657081,92.1207957 C1.3418487,92.649727 1.90393201,92.9776894 2.51382058,92.9769013 C3.12370915,92.9761133 3.68492788,92.6466996 3.97881348,92.1170071 C4.27269907,91.5873145 4.25276329,90.9411325 3.92677357,90.4302279 C3.08852199,89.0325863 3.18095473,87.2723281 4.16106338,85.9684912 C8.57508345,80.1258145 16.24417,73.3852172 27.6868844,74.4379518 C29.2299781,74.5838908 30.722428,75.0614838 32.0602943,75.8374694 L41.9598198,81.5996429 C43.9329828,82.7456653 45.2904007,84.7014181 45.6647227,86.9376263 L46.4269456,91.4736736 C46.8944435,94.2879074 48.455396,96.8087242 50.7753645,98.4960322 L57.4260713,103.357189 C59.5506415,104.899246 60.7578611,107.391109 60.6436514,109.998705 C60.5093252,112.974228 59.7814649,115.572006 58.4819374,117.720823 C57.3282698,119.610226 54.8645233,120.242368 52.9308308,119.145111 C52.4129839,118.848098 51.7746074,118.847475 51.2561715,119.143476 C50.7377356,119.439478 50.418003,119.987135 50.4174139,120.580149 C50.4168249,121.173164 50.7354688,121.721444 51.2533157,122.018457 C52.376152,122.663221 53.6511877,123.001866 54.948847,122.999977 C57.5693201,123.006476 60.0012357,121.650236 61.3558924,119.426872 C62.9428154,116.801228 63.8299929,113.68018 63.9893099,110.138038 C64.1526627,106.428042 62.4355263,102.882362 59.4128489,100.688197 Z" id="Path" fill="#133D8D"></path>
						<path d="M14.5,89 C9.25329488,89 5,93.2532949 5,98.5 C5,103.746705 9.25329488,108 14.5,108 C19.7467051,108 24,103.746705 24,98.5 C23.9928045,93.2562782 19.7437218,89.0071955 14.5,89 Z M14.5,104.499141 C11.1867661,104.499141 8.5008594,101.813234 8.5008594,98.5 C8.5008594,95.1867661 11.1867661,92.5008594 14.5,92.5008594 C17.8132339,92.5008594 20.4991406,95.1867661 20.4991406,98.5 C20.4937466,101.810997 17.810997,104.493747 14.5,104.499141 Z" id="Shape" fill="#133D8D" fill-rule="nonzero"></path>
						<path d="M76.268472,2.35823816 C74.2340503,0.0652859133 70.9202881,-0.641371224 68.1098682,0.618422431 C65.2994484,1.87821609 63.6550255,4.8074202 64.0612389,7.83023013 L67.3013315,31.8050283 C67.5516625,33.6348643 69.1325793,35 71.0013185,35 C72.8700578,35 74.4509746,33.6348643 74.7013056,31.8050283 L77.9381933,7.83023013 C78.2056465,5.85371059 77.5970652,3.85927474 76.268472,2.35823816 Z M74.5218346,7.38056412 L71.2945613,31.349029 C71.2785371,31.4566955 71.2593081,31.6023619 70.9997161,31.6023619 C70.7401241,31.6023619 70.7208951,31.4566955 70.7080757,31.349029 L67.471188,7.38056412 C67.266233,6.01326555 67.8898063,4.65393273 69.0655469,3.90500714 C70.2412875,3.15608155 71.751735,3.15608155 72.9274756,3.90500714 C74.1032162,4.65393273 74.7267895,6.01326555 74.5218346,7.38056412 Z" id="Shape" fill="#3DB200" fill-rule="nonzero"></path>
						<path d="M66,42.9999154 C66.0000013,45.4272335 67.3406474,47.6154216 69.3965446,48.5437189 C71.4524419,49.4720163 73.8185136,48.9575189 75.3910187,47.2402331 C76.9635238,45.5229473 77.432629,42.9412325 76.5795031,40.6994246 C75.7263771,38.4576167 73.7191127,36.9974225 71.4940721,37.0000034 C68.4595026,37.00528 66.0016086,39.6894726 66,42.9999154 Z M73.8624586,42.9999154 C73.8624586,44.4250886 72.8034049,45.5804198 71.496996,45.5804198 C70.1905871,45.5804198 69.1315334,44.4250886 69.1315334,42.9999154 C69.1315334,41.5747421 70.1905871,40.419411 71.496996,40.419411 C72.8034049,40.419411 73.8624586,41.5747421 73.8624586,42.9999154 Z" id="Shape" fill="#3DB200" fill-rule="nonzero"></path>
					</g>
				</g>
			</g>
		</g>
	</g>
</svg>