<?xml version="1.0" ?>
<svg width="89px" height="105px" viewBox="0 0 89 105" version="1.1" xmlns="http://www.w3.org/2000/svg" xmlns:xlink="http://www.w3.org/1999/xlink">
	<g id="Mockup" stroke="none" stroke-width="1" fill="none" fill-rule="evenodd">
		<g id="Desktop-//-Homepage-" transform="translate(-998.000000, -3441.000000)">
			<g id="Experience-with-Many-Caste-Types" transform="translate(227.000000, 3199.000000)">
				<g id="Premises-Negligence" transform="translate(699.000000, 244.000000)">
					<g id="Slip" transform="translate(74.000000, 0.000000)">
						<circle id="Oval" stroke="#133D8D" stroke-width="2" cx="17" cy="18" r="7"></circle>
						<path d="M18.036153,35.2507691 C17.9017475,35.3348905 17.7673421,35.4430466 17.6329366,35.527168 C5.43869658,43.3023876 7.2104048,55.475954 7.30815422,56.0648037 C7.61362115,57.9995956 6.26956664,59.8262314 4.30235958,60.1266649 C4.10686074,60.1747343 3.9113619,60.1867516 3.72808174,60.1867516 C1.98081088,60.1867516 0.441257529,58.9369482 0.160227949,57.1824164 C0.123571917,56.9661043 -3.15103362,34.6499021 21.7872869,25.6489137 C41.0317038,18.714908 43.6587194,3.26060752 43.6831568,3.10438209 C43.9886237,1.1695902 45.8470845,-0.260473378 47.8130697,0.0399601456 C49.7802768,0.340393669 51.1377718,2.07089077 50.8323049,4.00568266 C50.7211149,4.72672312 48.1551927,20.4694398 31.2078872,28.8815784 C31.4156047,30.0833125 31.5988848,29.9511218 31.7210716,30.4438328 C33.5660919,37.5460813 37.0972897,45.609717 39.0767154,47.123902 C39.1255901,47.159954 39.1744648,47.2080234 39.2233395,47.2320581 C39.2355582,47.2320581 39.2477769,47.2440754 39.2599956,47.2440754 C43.8297809,43.1581795 51.2831741,36.9091622 56.1462077,35.1786651 C62.8664803,32.7751969 78.5063873,31.9580177 80.2658768,31.8738963 C82.7707057,31.7657403 84.8723182,33.6524628 84.994505,36.1040004 C85.1166918,38.5555379 83.1861407,40.6345379 80.7045274,40.7547113 C76.2948067,40.9590061 63.8427526,41.872324 59.2375331,43.5307171 C56.7571416,44.407983 51.8207959,48.21748 47.34876,52.0750465 C51.2220807,51.6904916 54.3622808,52.303376 58.1989455,56.8579482 C64.3693776,64.2125608 72.9346704,78.7174914 73.2890121,79.3303758 C74.5353171,81.4574451 73.8021965,84.1721624 71.6504874,85.399133 C70.9295855,85.8077225 70.148812,86 69.3900321,86 C67.8260414,86 66.3109254,85.2068555 65.4678367,83.7888093 C65.3823059,83.6446012 56.9269812,69.2946943 51.2330775,62.5181158 C49.6703087,60.6674453 49.6813055,60.6674453 46.6156393,61.1469372 C44.4284961,61.4954401 41.4104828,61.9761337 37.1205051,61.8691794 C26.8812535,61.6047979 20.2587304,44.1075494 17.6317147,35.5512027 C17.7661202,35.4670813 17.9005256,35.3829599 18.0349311,35.2988385" id="Path" stroke="#133D8D" stroke-width="2.5"></path>
						<path d="M17.4432541,68.7473056 C20.5445885,71.6453865 24.0231281,74.4328717 27.5441033,76.9979765 C31.0886539,79.5690273 34.7722988,81.9533736 38.5985745,84.0749068 C42.4248502,86.1940615 46.3961142,88.0551598 50.5123664,89.5047948 C54.6250823,90.9508622 58.8945742,91.9878448 63.2430434,92.3434156 C63.6956897,92.3790917 64.0328169,92.7786629 63.9974539,93.2353158 C63.9644484,93.6717522 63.5954945,94.0035391 63.1676023,93.9999715 C58.6317093,93.9369439 54.1252854,93.1615854 49.7603134,91.9509796 C45.3906264,90.7368062 41.1506037,89.0897639 37.0484967,87.1692057 C32.9463897,85.2438906 28.978662,83.0403026 25.1358836,80.6321722 C21.283675,78.1990687 17.6023876,75.6518019 13.9729659,72.694261 C12.8484228,71.7773877 12.6727866,70.116075 13.5816155,68.9815781 C14.4892656,67.8470811 16.137181,67.6698903 17.2617241,68.5867636 C17.3065172,68.6224396 17.3489528,68.660494 17.3902097,68.6985484 L17.4432541,68.7473056 Z" id="Path" fill="#3DB200"></path>
						<path d="M25.1417864,86.3906618 C29.1738182,88.6513311 33.5919475,90.7030704 37.9990803,92.5259257 C42.4343152,94.3511286 46.977071,95.9521426 51.6041329,97.2867121 C60.8472601,99.9347235 70.5082525,101.554518 80.2034561,101.114356 C80.6213212,101.093228 80.9780949,101.400755 80.998866,101.802182 C81.0208589,102.186003 80.7202893,102.517004 80.3293044,102.562781 C70.448383,103.647339 60.4049585,102.621469 50.7219732,100.50752 C45.8713168,99.4405689 41.087861,98.0919141 36.3899331,96.5049854 C31.6748997,94.8969288 27.1064855,93.1386305 22.5050821,90.9401707 C21.1635151,90.2992956 20.6173581,88.7358421 21.2844761,87.4458756 C21.9515941,86.1570828 23.5790687,85.6324104 24.9206356,86.2732855 C24.9731742,86.2979345 25.0232691,86.3249311 25.0733641,86.3519276 L25.1417864,86.3906618 Z" id="Path" fill="#3DB200"></path>
					</g>
				</g>
			</g>
		</g>
	</g>
</svg>