<?xml version="1.0" encoding="UTF-8"?>
<svg width="22px" height="13px" viewBox="0 0 22 13" version="1.1" xmlns="http://www.w3.org/2000/svg" xmlns:xlink="http://www.w3.org/1999/xlink">
    <!-- Generator: Sketch 63.1 (92452) - https://sketch.com -->
    <title>Path Copy 5</title>
    <desc>Created with Sketch.</desc>
    <g id="Mockup" stroke="none" stroke-width="1" fill="none" fill-rule="evenodd">
        <g id="Desktop//-PPP-Cares" transform="translate(-460.000000, -2659.000000)" fill="#133D8D">
            <g id="Top-100" transform="translate(129.000000, 2313.000000)">
                <g id="Top-10" transform="translate(0.000000, 308.000000)">
                    <g id="1" transform="translate(4.000000, 0.000000)">
                        <path d="M349,44.4983036 C348.990938,44.2659289 348.895724,43.9973493 348.737129,43.8279595 L343.560656,38.3026907 C343.209886,37.9860436 342.537268,37.8553288 342.145215,38.2214408 C341.759051,38.5820278 341.770536,39.2813619 342.155245,39.6433789 L345.79495,43.5232562 L327.970588,43.5232562 C327.434565,43.5232562 327,43.9598118 327,44.4983036 C327,45.0367954 327.434565,45.4733348 327.970588,45.4733348 L345.79495,45.4733348 L342.155245,49.3532121 C341.824048,49.6864991 341.762836,50.4104357 342.145215,50.7751502 C342.527498,51.1398322 343.224283,51.0233198 343.560656,50.6938678 L348.737129,45.1686477 C348.914262,44.979563 349.000579,44.7577183 349,44.4983036 L349,44.4983036 Z" id="Path-Copy-5" transform="translate(338.000000, 44.500000) rotate(360.000000) translate(-338.000000, -44.500000) "></path>
                    </g>
                </g>
            </g>
        </g>
    </g>
</svg>