<?xml version="1.0" encoding="UTF-8"?>
<svg width="18px" height="18px" viewBox="0 0 18 18" version="1.1" xmlns="http://www.w3.org/2000/svg" xmlns:xlink="http://www.w3.org/1999/xlink">
    <!-- Generator: Sketch 60 (88103) - https://sketch.com -->
    <title>More information</title>
    <desc>Created with Sketch.</desc>
    <g id="Mockup" stroke="none" stroke-width="1" fill="none" fill-rule="evenodd">
        <g id="Desktop//-How-it-Works-v2" transform="translate(-328.000000, -810.000000)" fill="#000000">
            <g id="Here's-How" transform="translate(130.000000, 464.000000)">
                <g id="You-Apply" transform="translate(0.000000, 193.500000)">
                    <g id="Heading" transform="translate(47.000000, 152.000000)">
                        <g id="More-information" transform="translate(151.000000, 0.500000)">
                            <path d="M7.32730845,7.37328094 C7.32730845,7.76227898 7.01257367,8.07701375 6.62711198,8.07701375 C6.23811395,8.07701375 5.92337917,7.76227898 5.92337917,7.37328094 C5.92337917,6.52455796 6.26640472,5.75717092 6.821611,5.20196464 C7.37681729,4.64675835 8.14420432,4.30373281 8.99292731,4.30373281 C9.84165029,4.30373281 10.6090373,4.64675835 11.1642436,5.20196464 C11.7194499,5.75717092 12.0624754,6.52455796 12.0624754,7.37328094 C12.0624754,8.22200393 11.7194499,8.98939096 11.1642436,9.54459725 C10.7681729,9.94066798 10.2624754,10.2306483 9.69666012,10.3614931 L9.69666012,10.6656189 C9.69666012,11.0546169 9.38192534,11.3693517 8.99292731,11.3693517 C8.60392927,11.3693517 8.2891945,11.0546169 8.2891945,10.6656189 L8.2891945,9.73909627 C8.2891945,9.35363458 8.60392927,9.0388998 8.99292731,9.0388998 C9.45265226,9.0388998 9.86994106,8.85147348 10.1705305,8.55088409 C10.4711198,8.2502947 10.6585462,7.83300589 10.6585462,7.37328094 C10.6585462,6.91355599 10.4711198,6.49626719 10.1705305,6.1956778 C9.86994106,5.89508841 9.45265226,5.70766208 8.99292731,5.70766208 C8.53320236,5.70766208 8.11591356,5.89508841 7.81532417,6.1956778 C7.51473477,6.49626719 7.32730845,6.91355599 7.32730845,7.37328094 Z M8.92220039,13.6927308 C8.53320236,13.6927308 8.21846758,13.3815324 8.21846758,12.9925344 C8.21846758,12.6035363 8.53320236,12.2888016 8.92220039,12.2888016 L9.07779961,12.2888016 C9.46679764,12.2888016 9.78153242,12.6035363 9.78153242,12.9925344 C9.78153242,13.3815324 9.46679764,13.6927308 9.07779961,13.6927308 L8.92220039,13.6927308 Z M9,16.5925344 C11.097053,16.5925344 12.9960707,15.7438114 14.3681729,14.3681729 C15.7438114,12.9960707 16.5925344,11.097053 16.5925344,9 C16.5925344,6.90294695 15.7438114,5.00392927 14.3681729,3.62829077 C12.9960707,2.25618861 11.097053,1.40392927 9,1.40392927 C6.90294695,1.40392927 5.00392927,2.25618861 3.62829077,3.62829077 C2.25618861,5.00392927 1.40392927,6.90294695 1.40392927,9 C1.40392927,11.097053 2.25618861,12.9960707 3.62829077,14.3681729 C5.00392927,15.7438114 6.90294695,16.5925344 9,16.5925344 Z M15.3618861,15.3618861 C13.735167,16.9921415 11.4825147,18 9,18 C6.51394892,18 4.26483301,16.9921415 2.6345776,15.3618861 C1.00785855,13.735167 0,11.4825147 0,9 C0,6.51394892 1.00785855,4.26483301 2.6345776,2.6345776 C4.26483301,1.00785855 6.51394892,0 9,0 C11.4825147,0 13.735167,1.00785855 15.3618861,2.6345776 C16.9921415,4.26483301 18,6.51394892 18,9 C18,11.4825147 16.9921415,13.735167 15.3618861,15.3618861 Z" id="Shape"></path>
                        </g>
                    </g>
                </g>
            </g>
        </g>
    </g>
</svg>