<?xml version="1.0" encoding="utf-8"?>
<!-- Generator: Adobe Illustrator 23.0.2, SVG Export Plug-In . SVG Version: 6.00 Build 0)  -->
<svg version="1.1" id="Layer_1" xmlns="http://www.w3.org/2000/svg" xmlns:xlink="http://www.w3.org/1999/xlink" x="0px" y="0px"
	 viewBox="0 0 359.9 122.7" style="enable-background:new 0 0 359.9 122.7;" xml:space="preserve">
<style type="text/css">
	.st0{fill:#133C89;}
	.st1{fill:#009CDB;}
</style>
<title>Oasis-logo</title>
<path class="st0" d="M209.6,9.4c0-5,4-9.1,9.1-9.1c2.4,0,4.8,1,6.5,2.7c1.7,1.7,2.7,4,2.6,6.4c-0.2,5-4.4,9-9.4,8.8
	C213.6,18.1,209.8,14.2,209.6,9.4L209.6,9.4z"/>
<path class="st0" d="M147.3,64.4v12h-25v-4.1c-4.1,3.1-9.1,4.8-14.2,4.9c-4.8,0.1-9.5-1.4-13.4-4.4C91,70,89,65.6,89.1,60.9
	c-0.1-4.9,2.1-9.5,5.9-12.5c3.9-3.4,9-5,15.3-5c4.1,0.1,8.2,1,12,2.6v-3.2c0.1-2.5-0.9-4.8-2.7-6.5c-2-1.8-4.6-2.7-7.2-2.6
	c-3.6,0-7.1,1.4-9.6,4.1l-13.4-2.4c3.9-8.2,12.3-12.3,25.2-12.3c4.2-0.1,8.4,0.5,12.4,1.7c2.8,0.8,5.3,2.3,7.4,4.4
	c1.6,1.7,2.7,3.7,3.4,5.9c0.7,2.1,1,5.6,1,10.4v19L147.3,64.4z M122.3,57.2c-4-2.5-7.2-3.8-9.6-3.8c-1.9,0-3.7,0.6-5.2,1.7
	c-1.6,1.1-2.5,2.9-2.3,4.9c0,1.8,0.6,3.6,1.9,4.9c1.2,1.3,3,2.1,4.8,2c3.1,0,6.6-1.8,10.4-5.4L122.3,57.2z"/>
<path class="st0" d="M152.9,76.4V58.5h12.2c0.1,2.4,1.4,4.6,3.4,5.8c2.4,1.5,5.1,2.3,7.9,2.2c2.2,0.1,4.4-0.4,6.4-1.4
	c1.4-0.7,2.2-2.1,2.3-3.6c0-1.4-0.8-2.6-2.1-3.2c-1.4-0.8-4.1-1.5-8.2-2.2c-8.5-1.4-14.5-3.4-18.2-6.2c-3.6-2.5-5.7-6.6-5.6-11
	c0-4.3,1.9-8.3,5.3-10.9c3.5-2.9,8.2-4.4,14-4.4c4.5,0,9,0.9,13.2,2.6v-1.9h11.9v15.1h-11.9c-1.1-3.6-4.9-5.4-11.4-5.4
	c-4.8,0-7.2,1.3-7.2,4c0,1,0.6,1.9,1.5,2.3c1,0.5,3.5,1.1,7.6,1.8c4.9,0.7,9.7,1.9,14.4,3.3c3.1,1,5.7,2.9,7.7,5.5
	c2,2.7,3,5.9,2.9,9.2c0.1,4.8-1.9,9.4-5.5,12.5c-3.6,3.3-8.8,4.9-15.5,4.9c-6.2,0-10.4-1.3-12.7-3.8v2.6L152.9,76.4z"/>
<polygon class="st0" points="205.3,36.3 205.3,24.4 229.8,24.4 229.8,64.4 237.6,64.4 237.6,76.4 205.3,76.4 205.3,64.4 213.2,64.4 
	213.2,36.3 "/>
<path class="st0" d="M246.1,76.4V58.5h12.1c0.1,2.4,1.4,4.6,3.4,5.8c2.4,1.5,5.2,2.3,8,2.2c2.2,0.1,4.4-0.4,6.4-1.4
	c1.4-0.7,2.2-2.1,2.3-3.6c0-1.4-0.9-2.6-2.1-3.2c-1.4-0.8-4.1-1.5-8.2-2.2c-8.4-1.4-14.5-3.4-18.2-6.2c-3.6-2.5-5.7-6.6-5.6-11
	c0-4.2,1.9-8.3,5.3-10.9c3.5-2.9,8.2-4.4,14-4.4c4.5,0,9,0.9,13.2,2.6v-1.9h11.9v15.1h-11.9c-1.1-3.6-4.9-5.4-11.4-5.4
	c-4.8,0-7.2,1.3-7.2,4c0,1,0.6,1.9,1.5,2.3c1,0.5,3.5,1.1,7.5,1.8c4.9,0.7,9.7,1.9,14.4,3.3c3.1,1,5.7,2.9,7.7,5.5
	c1.9,2.7,3,5.9,2.9,9.2c0.1,4.8-1.9,9.4-5.5,12.5c-3.6,3.3-8.8,4.9-15.5,4.9c-6.2,0-10.5-1.3-12.8-3.8v2.6L246.1,76.4z"/>
<path class="st1" d="M4.4,115.8V91.3H0.2v-4.1h25.4v9.9h-4v-5.8H9.3v9.7h10.6v4.1H9.3v10.7h4.2v4.1H0.2v-4.1L4.4,115.8z"/>
<path class="st1" d="M31,115.9v-14.8h-3.5v-4h8v18.8H39v4H27.5v-4H31z M30.4,89.4c0-0.7,0.2-1.4,0.7-1.9c1.1-1,2.8-1,3.8,0
	c1.1,1,1.1,2.7,0.1,3.8c0,0,0,0-0.1,0.1c-1,1.1-2.7,1.1-3.8,0c0,0,0,0,0,0C30.6,90.8,30.4,90.1,30.4,89.4L30.4,89.4z"/>
<path class="st1" d="M49.7,97.2v2.8c2.9-2.1,5.5-3.1,7.8-3.1c1.3-0.1,2.6,0.3,3.7,1c0.9,0.6,1.6,1.5,1.9,2.6
	c0.3,1.4,0.5,2.9,0.4,4.4v11.1h3.8v4h-8.3V105c0-1.7-0.3-2.9-0.8-3.4c-0.5-0.5-1.2-0.8-1.9-0.8c-2,0-4.2,1-6.7,2.9v12.2h3.9v4H41.3
	v-4h4v-14.8h-4v-4L49.7,97.2z"/>
<path class="st1" d="M92.5,115.9v4h-7.8v-2.8c-1.9,2-4.5,3.1-7.2,3.1c-2,0-3.9-0.7-5.4-2c-1.5-1.3-2.3-3.2-2.3-5.2
	c0-2,0.9-4,2.4-5.3c1.6-1.4,3.7-2.1,5.9-2.1c2.2,0,4.4,0.7,6.2,1.9v-2.2c0-0.9-0.1-1.8-0.3-2.7c-0.3-0.7-0.8-1.3-1.5-1.7
	c-1-0.5-2.1-0.8-3.2-0.8c-2-0.1-3.9,0.9-4.9,2.7l-4.3-1.2c1.9-3.5,5.2-5.3,9.8-5.3c1.5,0,3,0.2,4.4,0.7c1.1,0.3,2,1,2.8,1.8
	c0.6,0.7,1,1.5,1.2,2.4c0.2,1.3,0.4,2.7,0.3,4v10.6H92.5z M84.3,111.4c-1.6-1.4-3.7-2.2-5.8-2.3c-1.1,0-2.2,0.3-3.1,1.1
	c-0.8,0.7-1.3,1.7-1.2,2.8c0,1,0.4,2,1.1,2.7c0.8,0.8,1.9,1.2,3,1.1c2.3-0.1,4.5-1,6.1-2.7L84.3,111.4z"/>
<path class="st1" d="M102.9,97.2v2.8c2.9-2.1,5.5-3.1,7.9-3.1c1.3-0.1,2.6,0.3,3.7,1c0.9,0.6,1.6,1.5,1.9,2.6
	c0.3,1.5,0.5,2.9,0.4,4.4v11.1h3.8v4h-8.3V105c0-1.7-0.3-2.9-0.8-3.4c-0.5-0.5-1.2-0.8-1.9-0.8c-2,0-4.2,1-6.7,2.9v12.2h3.9v4H94.4
	v-4h4v-14.8h-4v-4L102.9,97.2z"/>
<path class="st1" d="M144,97.2v8.6h-4c-0.1-1.5-0.8-2.9-2-3.8c-1.1-0.9-2.6-1.3-4-1.3c-1.9-0.1-3.7,0.7-4.9,2.1
	c-1.3,1.6-2,3.6-1.9,5.6c0,2,0.6,4,1.8,5.7c1.2,1.6,3.1,2.6,5.2,2.5c3,0.1,5.7-1.7,6.8-4.5l3.7,1.7c-2,4.5-5.6,6.8-10.7,6.8
	c-3.3,0.2-6.4-1.2-8.5-3.7c-2-2.4-3.1-5.4-3.1-8.5c-0.1-3.2,1.1-6.3,3.4-8.5c2-2.1,4.9-3.3,7.8-3.4c2.3-0.1,4.6,0.7,6.4,2.2v-1.6
	L144,97.2z"/>
<path class="st1" d="M150.9,115.9v-14.8h-3.5v-4h8v18.8h3.5v4h-11.5v-4H150.9z M150.3,89.4c0-0.7,0.3-1.4,0.8-1.9
	c0.5-0.5,1.3-0.8,2-0.8c0.7,0,1.4,0.3,1.9,0.8c1.1,1,1.1,2.7,0,3.8c0,0,0,0,0,0c-0.5,0.5-1.2,0.8-1.9,0.8c-0.7,0-1.4-0.3-1.9-0.8
	C150.6,90.8,150.3,90.1,150.3,89.4L150.3,89.4z"/>
<path class="st1" d="M184.8,115.9v4H177v-2.8c-1.9,2-4.5,3.1-7.2,3.1c-2,0-3.9-0.7-5.4-2c-1.5-1.3-2.3-3.2-2.3-5.2
	c0-2,0.9-4,2.4-5.3c1.6-1.4,3.7-2.1,5.9-2.1c2.2,0,4.4,0.7,6.2,1.9v-2.2c0-0.9-0.1-1.8-0.3-2.7c-0.3-0.7-0.8-1.3-1.5-1.7
	c-1-0.5-2.1-0.8-3.2-0.8c-2-0.1-3.9,0.9-4.9,2.7l-4.3-1.1c1.9-3.5,5.2-5.3,9.8-5.3c1.5,0,3,0.2,4.4,0.7c1.1,0.3,2,1,2.8,1.8
	c0.6,0.7,1,1.5,1.2,2.4c0.3,1.3,0.4,2.7,0.3,4v10.5H184.8z M176.6,111.4c-1.6-1.4-3.7-2.2-5.9-2.3c-1.1,0-2.2,0.4-3.1,1.1
	c-0.8,0.7-1.3,1.7-1.2,2.8c0,1,0.4,2,1.1,2.7c0.8,0.8,1.9,1.2,3,1.1c2.3-0.1,4.5-1,6.1-2.7L176.6,111.4z"/>
<path class="st1" d="M190.5,115.9V91.2h-4v-4h8.5v28.8h3.5v4h-12v-4H190.5z"/>
<path class="st0" d="M292.6,14.5h-1.9v-0.6h4.4v0.6h-1.9v5h-0.6L292.6,14.5z"/>
<path class="st0" d="M296.3,13.9h0.6l2,3l2-3h0.6v5.6h-0.6v-4.5l-2,3l0,0l-2-3v4.5h-0.6L296.3,13.9z"/>
<path class="st0" d="M83.4,38.7c0,19.3-13.3,38.6-41.8,38.6C13.5,77.2,0,58.1,0,38.7C0,18.7,14,0,41.7,0C69.6,0,83.4,18.8,83.4,38.7
	z M21,39c0,14.5,8.4,24.5,20.7,24.5c10.3,0,20.8-7.7,20.8-25c0-15.5-9.1-24.9-20.8-24.9C31.8,13.7,21,20.9,21,39z"/>
</svg>
