<?xml version="1.0" ?>
<svg width="32px" height="36px" viewBox="0 0 32 36" version="1.1" xmlns="http://www.w3.org/2000/svg" xmlns:xlink="http://www.w3.org/1999/xlink">
	<title>slingarm</title>
	<desc>Created with Sketch.</desc>
	<g id="Wireframe" stroke="none" stroke-width="1" fill="none" fill-rule="evenodd">
		<g id="Wireframe-//-type-of-funding" transform="translate(-67.000000, -692.000000)">
			<g id="slingarm" transform="translate(68.000000, 693.000000)">
				<g id="noun_Arm-Sling_409290_000000" fill="#133D8D" fill-rule="nonzero" stroke="#133D8D" stroke-width="0.5">
					<path d="M6.69364865,25.9653256 C6.35797297,25.9653256 6.08554054,26.2306047 6.08554054,26.5583488 L6.08554054,33.3267209 C6.08554054,33.6540698 6.35797297,33.9197442 6.69364865,33.9197442 C7.02932432,33.9197442 7.30175676,33.6540698 7.30175676,33.3267209 L7.30175676,26.5583488 C7.30175676,26.2306047 7.02932432,25.9653256 6.69364865,25.9653256 Z M25.2004054,17.3475116 L19.6483784,16.2883721 C18.825,16.1310233 18.7418919,14.8904186 18.7447297,14.3586744 C20.7847297,12.7215349 22.0893243,9.86632558 22.0893243,6.99253488 C22.0893243,3.18137209 18.9097297,0.0806511628 15.0016216,0.0806511628 C11.0927027,0.0806511628 7.9127027,3.18137209 7.9127027,6.99253488 C7.9127027,9.86593023 9.21689189,12.7207442 11.2564865,14.3578837 C11.2597297,14.8888372 11.1766216,16.1310233 10.3528378,16.2883721 L4.8,17.3475116 C1.58554054,17.9606977 0.152027027,19.922814 0.152027027,23.7086744 L0.152027027,33.3267209 C0.152027027,33.6540698 0.424459459,33.9197442 0.760135135,33.9197442 C1.09581081,33.9197442 1.36824324,33.6540698 1.36824324,33.3267209 L1.36824324,23.7086744 C1.36824324,19.755186 3.13013514,18.8739535 5.03351351,18.5114186 L10.5855405,17.4526744 C12.2683784,17.1312558 12.5582432,15.1944419 12.4633784,14.0605814 C12.4621622,13.8795116 12.3758108,13.7047674 12.2217568,13.590907 C10.3422973,12.2052093 9.12810811,9.61488372 9.12810811,6.99253488 C9.12810811,3.83527907 11.7628378,1.26669767 15.0008108,1.26669767 C18.2383784,1.26669767 20.8722973,3.83527907 20.8722973,6.99253488 C20.8722973,9.61448837 19.6585135,12.2044186 17.7794595,13.5901163 C17.6436486,13.6905349 17.5568919,13.8419535 17.5410811,14.008 C17.4458108,14.9991395 17.6468919,16.6615814 18.8635135,17.2676512 L17.5978378,26.5658605 L14.7535135,26.5658605 C12.6745946,26.5658605 10.9832432,28.2156512 10.9832432,30.243 C10.9832432,32.2707442 12.6745946,33.9201395 14.7535135,33.9201395 L26.0777027,33.9201395 C28.1562162,33.9201395 29.8475676,32.2703488 29.8475676,30.243 L29.8475676,23.7086744 C29.847973,19.922814 28.4148649,17.9606977 25.2004054,17.3475116 Z M16.7586486,32.7336977 L14.7543243,32.7336977 C13.3459459,32.7336977 12.2002703,31.6164419 12.2002703,30.2426047 C12.2002703,28.8691628 13.3459459,27.7515116 14.7543243,27.7515116 L17.4368919,27.7515116 L16.7586486,32.7336977 Z M17.9858108,32.7336977 L20.0493243,17.5732558 L23.4985135,18.2311163 L25.6378378,32.7336977 L17.9858108,32.7336977 Z M28.6317568,30.2426047 C28.6317568,31.3539302 27.8813514,32.2972326 26.8491892,32.6170698 L24.762973,18.4722791 L24.9672973,18.5114186 C26.8706757,18.8747442 28.6321622,19.755186 28.6321622,23.7086744 L28.6321622,30.2426047 L28.6317568,30.2426047 Z" id="Shape"></path>
				</g>
				<path d="M19.6311729,16.963554 L17.3129929,33.3660132 L26.2929469,33.3660132 L23.9674897,17.7681556 L19.6311729,16.963554 Z" id="Rectangle" stroke="#3DB200" stroke-width="1.8"></path>
			</g>
		</g>
	</g>
</svg>