<?xml version="1.0" ?>
<svg width="38px" height="38px" viewBox="0 0 38 38" version="1.1" xmlns="http://www.w3.org/2000/svg" xmlns:xlink="http://www.w3.org/1999/xlink">
	<title>noun_bill_1213642_000000</title>
	<desc>Created with Sketch.</desc>
	<g id="Wireframe" stroke="none" stroke-width="1" fill="none" fill-rule="evenodd">
		<g id="Wireframe-//-type-of-funding" transform="translate(-68.000000, -817.000000)" fill-rule="nonzero">
			<g id="noun_bill_1213642_000000" transform="translate(68.000000, 817.000000)">
				<path d="M31.6,3.99791667 L13.76,0.197916667 L12.44,6.25416667 L0,6.25416667 L0,37.8020833 L26.12,37.8020833 L26.12,35.0708333 L32.56,36.45625 L37.64,13.2208333 L31.6,3.99791667 Z M31.44,7.40208333 L34.4,11.9541667 L30.6,11.1229167 L31.44,7.40208333 Z M24.12,35.8229167 L1.96,35.8229167 L1.96,8.19375 L16.84,8.19375 L16.84,15.4375 L24.08,15.4375 L24.08,35.8229167 L24.12,35.8229167 Z M18.84,13.4583333 L18.84,9.61875 L22.72,13.4583333 L18.84,13.4583333 Z M31.04,34.1208333 L26.12,33.0520833 L26.12,29.33125 L28.08,29.7666667 L28.48,27.8666667 L26.08,27.3520833 L26.08,23.63125 L29.24,24.3041667 L29.64,22.4041667 L26.08,21.6520833 L26.08,17.93125 L30.44,18.88125 L30.84,16.98125 L26.08,15.9520833 L26.08,14.0916667 L18.24,6.33333333 L14.44,6.33333333 L15.24,2.57291667 L29.8,5.66041667 L28.28,12.6666667 L35.36,14.1708333 L31.04,34.1208333 Z" id="Shape" fill="#133D8D"></path>
				<rect id="Rectangle" fill="#133D8D" x="5.8" y="30.2416667" width="14.48" height="1.97916667"></rect>
				<rect id="Rectangle" fill="#133D8D" x="5.8" y="24.6604167" width="14.48" height="1.97916667"></rect>
				<path d="M8.76,18.8020833 C8.56,18.64375 8.44,18.4458333 8.4,18.2083333 L7,18.40625 C7.08,18.9604167 7.36,19.475 7.84,19.8708333 C8.16,20.1083333 8.48,20.30625 8.88,20.3854167 L8.88,21.73125 L10.28,21.73125 L10.28,20.425 C10.72,20.3458333 11.16,20.1083333 11.52,19.83125 L11.6,19.7520833 C12.16,19.1979167 12.44,18.4458333 12.4,17.69375 C12.36,16.9416667 11.96,16.2291667 11.36,15.79375 C10.8,15.3583333 10.24,15.2395833 9.8,15.1604167 C9.36,15.0416667 9.12,15.0020833 8.88,14.7645833 C8.64,14.5270833 8.52,14.2895833 8.52,14.0125 C8.52,13.775 8.68,13.5770833 8.8,13.4583333 C9.28,13.0625 10.08,13.1020833 10.52,13.4979167 C10.6,13.5770833 10.68,13.65625 10.72,13.775 L12.16,13.5770833 C12.04,13.18125 11.8,12.7854167 11.44,12.46875 C11.12,12.1916667 10.72,11.99375 10.28,11.875 L10.28,10.5291667 L8.88,10.5291667 L8.88,11.875 C8.52,11.99375 8.16,12.1520833 7.84,12.3895833 C7.84,12.3895833 7.84,12.3895833 7.8,12.4291667 L7.76,12.46875 C7.28,12.9041667 7.04,13.4583333 7,14.0125 C6.96,14.6458333 7.24,15.2791667 7.76,15.79375 C8.28,16.3083333 8.88,16.4666667 9.4,16.5854167 C9.76,16.6645833 10.12,16.74375 10.44,16.98125 C10.72,17.1791667 10.88,17.4958333 10.92,17.8520833 C10.96,18.2083333 10.8,18.5645833 10.52,18.8416667 C10.08,19.1979167 9.28,19.1979167 8.76,18.8020833 Z" id="Path" fill="#3DB200"></path>
			</g>
		</g>
	</g>
</svg>