<?xml version="1.0" ?>
<svg width="47px" height="42px" viewBox="0 0 47 42" version="1.1" xmlns="http://www.w3.org/2000/svg" xmlns:xlink="http://www.w3.org/1999/xlink">
	<g id="Mockup" stroke="none" stroke-width="1" fill="none" fill-rule="evenodd">
		<g id="Desktop-//-Homepage-" transform="translate(-133.000000, -1557.000000)" fill-rule="nonzero" stroke="#FFFFFF">
			<g id="How-We-Can-Help" transform="translate(-4.000000, 1029.000000)">
				<g id="Group" transform="translate(134.000000, 237.000000)">
					<g id="BBB-A+-Raiting" transform="translate(4.000000, 287.000000)">
						<g id="Icon" transform="translate(0.000000, 5.000000)">
							<path d="M16.1226748,0 C15.5248006,0.0809716591 14.9867137,0.688259114 15.0066428,1.33603236 L15.0066428,6.7004047 L2.29185117,6.7004047 C0.916740501,6.7004047 0,7.99595154 0,9.33198356 L0,37.3481783 C0,38.6842103 0.916740501,40 2.29185117,40 L42.6882192,40 C44.06333,40 45,38.6842103 45,37.3481783 L45,9.33198356 C45,7.99595154 44.06333,6.7004047 42.6882192,6.7004047 L29.9933566,6.7004047 L29.9933566,1.33603236 C29.9933566,0.647773307 29.3954824,0 28.737821,0 L16.1226748,0 Z M17.4977855,2.67206479 L27.5022145,2.67206479 L27.5022145,6.7004047 L17.4977855,6.7004047 L17.4977855,2.67206479 Z M2.49114257,9.35222701 L42.4889282,9.35222701 L42.4889282,20.6072877 L37.1279894,24.0080969 L7.87201063,24.0080969 L2.49114257,20.6072877 L2.49114257,9.35222701 Z M2.49114257,23.7044532 L6.89548244,26.4979757 C7.07484491,26.59919 7.29406558,26.6801621 7.51328625,26.6801621 L21.2444638,26.6801621 L21.2444638,37.3279354 L2.49114257,37.3279354 L2.49114257,23.7044532 Z M42.4889282,23.7044532 L42.4889282,37.3279354 L23.7555356,37.3279354 L23.7555356,26.6801621 L37.4867137,26.6801621 C37.7059344,26.6801621 37.9251545,26.6194335 38.1244461,26.4979757 L42.4889282,23.7044532 Z" id="Shape" stroke-width="0.5" fill="#133D8D"></path>
							<rect id="Rectangle-2" fill="#3DB200" x="19" y="19" width="6" height="3" rx="1.5"></rect>
						</g>
					</g>
				</g>
			</g>
		</g>
	</g>
</svg>