<?xml version="1.0" ?>
<svg width="43px" height="43px" viewBox="0 0 43 43" version="1.1" xmlns="http://www.w3.org/2000/svg" xmlns:xlink="http://www.w3.org/1999/xlink">
	<g id="Mockup" stroke="none" stroke-width="1" fill="none" fill-rule="evenodd">
		<g id="Desktop-//-Homepage-" transform="translate(-135.000000, -1353.000000)" stroke-width="0.5">
			<g id="How-We-Can-Help" transform="translate(-4.000000, 1029.000000)">
				<g id="Group" transform="translate(134.000000, 237.000000)">
					<g id="Get-Cash" transform="translate(6.000000, 88.000000)">
						<g id="Icon">
							<path d="M20.5,0 C9.19393939,0 0,9.19393939 0,20.5 C0,31.8060606 9.19393939,41 20.5,41 C31.8060606,41 41,31.8060606 41,20.5 C41,9.19393939 31.8060606,0 20.5,0 Z M20.5,39.3434343 C10.1050505,39.3434343 1.65656566,30.8949495 1.65656566,20.5 C1.65656566,10.1050505 10.1050505,1.65656566 20.5,1.65656566 C30.8949495,1.65656566 39.3434343,10.1050505 39.3434343,20.5 C39.3434343,30.8949495 30.8949495,39.3434343 20.5,39.3434343 Z" id="Shape" stroke="#133D8D" fill="#133D8D" fill-rule="nonzero"></path>
							<path d="M21.7031548,21 C21.7827925,20.7972973 21.8226114,20.5945946 21.8226114,20.3918919 C21.8226114,19.6216216 21.3846038,18.9324324 20.7076831,18.6486486 L20.7076831,6.81081081 C20.7076831,6.36486486 20.3493132,6 19.9113057,6 C19.4732981,6 19.1149283,6.36486486 19.1149283,6.81081081 L19.1149283,18.6486486 C18.4778264,18.972973 18,19.6216216 18,20.3918919 C18,21.4459459 18.8361962,22.3378378 19.9113057,22.3378378 C20.1502189,22.3378378 20.3891321,22.2972973 20.5882265,22.2162162 L25.6850416,26.7972973 C25.8443171,26.9189189 26.0434115,27 26.2026869,27 C26.4416001,27 26.6406945,26.9189189 26.79997,26.7162162 C27.078702,26.3918919 27.078702,25.8648649 26.7203322,25.5810811 L21.7031548,21 Z" id="Path" stroke="#3DB200" fill="#3DB200"></path>
						</g>
					</g>
				</g>
			</g>
		</g>
	</g>
</svg>