<svg width="22px" height="13px" viewBox="0 0 22 13" version="1.1" xmlns="http://www.w3.org/2000/svg" xmlns:xlink="http://www.w3.org/1999/xlink">
    <g id="Mockup" stroke="none" stroke-width="1" fill="none" fill-rule="evenodd">
        <g id="Desktop//-PPP-Cares" transform="translate(-575.000000, -2814.000000)" fill="#007AB8">
            <g id="Top-100" transform="translate(129.000000, 2313.000000)">
                <g id="Top-10" transform="translate(0.000000, 308.000000)">
                    <g id="3" transform="translate(3.000000, 158.000000)">
                        <path d="M465,41.4983036 C464.990938,41.2659289 464.895724,40.9973493 464.737129,40.8279595 L459.560656,35.3026907 C459.209886,34.9860436 458.537268,34.8553288 458.145215,35.2214408 C457.759051,35.5820278 457.770536,36.2813619 458.155245,36.6433789 L461.79495,40.5232562 L443.970588,40.5232562 C443.434565,40.5232562 443,40.9598118 443,41.4983036 C443,42.0367954 443.434565,42.4733348 443.970588,42.4733348 L461.79495,42.4733348 L458.155245,46.3532121 C457.824048,46.6864991 457.762836,47.4104357 458.145215,47.7751502 C458.527498,48.1398322 459.224283,48.0233198 459.560656,47.6938678 L464.737129,42.1686477 C464.914262,41.979563 465.000579,41.7577183 465,41.4983036 L465,41.4983036 Z" id="Path-Copy-5" transform="translate(454.000000, 41.500000) rotate(360.000000) translate(-454.000000, -41.500000) "></path>
                    </g>
                </g>
            </g>
        </g>
    </g>
</svg>