<?xml version="1.0" encoding="UTF-8"?>
<svg width="14px" height="23px" viewBox="0 0 14 23" version="1.1" xmlns="http://www.w3.org/2000/svg" xmlns:xlink="http://www.w3.org/1999/xlink">
    <!-- Generator: Sketch 52.6 (67491) - http://www.bohemiancoding.com/sketch -->
    <title>Path</title>
    <desc>Created with Sketch.</desc>
    <g id="Mockup" stroke="none" stroke-width="1" fill="none" fill-rule="evenodd">
        <g id="Mobile-Mockup-//-About" transform="translate(-328.000000, -3191.000000)" fill="#FFFFFF">
            <g id="Forward" transform="translate(335.000000, 3202.500000) rotate(-90.000000) translate(-335.000000, -3202.500000) translate(324.000000, 3196.000000)">
                <path d="M21.9999971,6.4983036 C21.9909383,6.26592892 21.8957236,5.99734928 21.7371295,5.82795951 L16.5606563,0.302690681 C16.2098858,-0.0139563937 15.5372682,-0.144671218 15.1452153,0.22144079 C14.7590507,0.582027805 14.770536,1.28136187 15.1552447,1.64337888 L18.7949501,5.52325616 L0.970588106,5.52325616 C0.434564648,5.52325616 0,5.95981183 0,6.4983036 C0,7.03679538 0.434564648,7.47333479 0.970588106,7.47333479 L18.7949501,7.47333479 L15.1552447,11.3532121 C14.8240477,11.6864991 14.762836,12.4104357 15.1452153,12.7751502 C15.5274976,13.1398322 16.2242828,13.0233198 16.5606563,12.6938678 L21.7371295,7.1686477 C21.9142618,6.97956296 22.0005794,6.75771826 21.9999971,6.4983036 Z" id="Path" transform="translate(11.000000, 6.500000) rotate(180.000000) translate(-11.000000, -6.500000) "></path>
            </g>
        </g>
    </g>
</svg>